<svg id="Capa_1" data-name="Capa 1" xmlns="http://www.w3.org/2000/svg" xmlns:xlink="http://www.w3.org/1999/xlink" viewBox="0 0 630 630"><defs><style>.cls-1{fill:url(#Degradado_sin_nombre_46);}.cls-2{fill:url(#Degradado_sin_nombre_48);}.cls-3{fill:url(#Degradado_sin_nombre_48-2);}.cls-4{fill:url(#Degradado_sin_nombre_48-3);}</style><linearGradient id="Degradado_sin_nombre_46" x1="41.48" y1="315.34" x2="480.68" y2="315.34" gradientUnits="userSpaceOnUse"><stop offset="0" stop-color="#66f"/><stop offset="1" stop-color="#9c9cff"/></linearGradient><radialGradient id="Degradado_sin_nombre_48" cx="457.88" cy="204.11" r="139.4" gradientUnits="userSpaceOnUse"><stop offset="0" stop-color="#9c9cff"/><stop offset="1" stop-color="#66f"/></radialGradient><radialGradient id="Degradado_sin_nombre_48-2" cx="430.78" cy="350.52" r="131.96" xlink:href="#Degradado_sin_nombre_48"/><radialGradient id="Degradado_sin_nombre_48-3" cx="386.9" cy="276.54" r="143.53" xlink:href="#Degradado_sin_nombre_48"/></defs><title>icon-svg</title><path class="cls-1" d="M480.68,496.32a270.77,270.77,0,0,1-37.3,23.77h0a275.92,275.92,0,0,1-39.4,17q-4.94,1.7-9.9,3.19l-.16,0L139.1,622.69l-.19-.14,0,0a74,74,0,0,1-96.38-79.42q-.49-130.35-1-260.68v-.13c0-1.59,0-3.19,0-4.78l0,0c.24-113.5,71.63-219.43,185-258.29A274,274,0,0,1,477,57.4q-7.11-.69-14.41-.7a146.94,146.94,0,0,0-136.19,92.05A147,147,0,0,0,332,417.9a147.17,147.17,0,0,0,148.66,78.42Z"/><path class="cls-2" d="M589,275.49c0,1.24,0,2.47,0,3.7a147.39,147.39,0,0,1-64.9,58.69,145.69,145.69,0,0,1-61.32,13.44A73.91,73.91,0,0,0,532.65,255a145.77,145.77,0,0,0-13.84-40.34,147.54,147.54,0,0,0-59.65-61.26,147,147,0,0,0-132.4-4.61,146.76,146.76,0,0,1,136-91.92q7.28,0,14.39.7a272.44,272.44,0,0,1,60.74,61.34q4.83,6.74,9.24,13.81a275.14,275.14,0,0,1,41.65,134.53h0C588.9,270,589,272.77,589,275.49Z"/><path class="cls-3" d="M545.87,425.58c-2.32,3.64-4.74,7.23-7.23,10.76a273,273,0,0,1-58,60A147.17,147.17,0,0,1,332,417.9,146.87,146.87,0,0,1,460.14,203.63a74,74,0,0,0-71.9,70.13.76.76,0,0,0,0,.15c-.06,1.21-.09,2.42-.09,3.65,0,.17,0,.33,0,.51s0,.67,0,1A146.83,146.83,0,0,0,535.05,426Q540.51,426,545.87,425.58Z"/><path class="cls-4" d="M532.57,255.09a74,74,0,0,0-70-51.48h-.33l-2.13,0A147,147,0,0,0,332,417.9,146.95,146.95,0,1,1,532.57,255.09Z"/></svg>